<svg xmlns="http://www.w3.org/2000/svg" width="1200" height="630" viewBox="0 0 1200 630" role="img" aria-labelledby="title desc">
  <title id="title">Funny Go scheduler cover</title>
  <desc id="desc">A simple cartoon of goroutines waiting for the Go scheduler.</desc>
  <defs>
    <linearGradient id="bg" x1="0" y1="0" x2="1" y2="1">
      <stop offset="0" stop-color="#ecfeff"/>
      <stop offset="0.48" stop-color="#fff7ed"/>
      <stop offset="1" stop-color="#eef2ff"/>
    </linearGradient>
    <filter id="shadow" x="-20%" y="-20%" width="140%" height="140%">
      <feDropShadow dx="0" dy="12" stdDeviation="12" flood-color="#0f172a" flood-opacity="0.16"/>
    </filter>
  </defs>

  <rect width="1200" height="630" rx="42" fill="url(#bg)"/>
  <circle cx="146" cy="102" r="54" fill="#67e8f9" opacity="0.42"/>
  <circle cx="1026" cy="510" r="84" fill="#fde68a" opacity="0.48"/>
  <circle cx="1050" cy="116" r="46" fill="#c4b5fd" opacity="0.35"/>

  <g filter="url(#shadow)">
    <rect x="78" y="414" width="1044" height="94" rx="28" fill="#ffffff" opacity="0.92"/>
    <path d="M136 461h702" stroke="#cbd5e1" stroke-width="10" stroke-linecap="round" stroke-dasharray="2 26"/>
    <path d="M860 461h170" stroke="#22c55e" stroke-width="12" stroke-linecap="round"/>
    <polygon points="1030,461 1002,444 1002,478" fill="#22c55e"/>
  </g>

  <g filter="url(#shadow)">
    <rect x="779" y="134" width="240" height="250" rx="28" fill="#0f172a"/>
    <rect x="807" y="166" width="72" height="72" rx="18" fill="#38bdf8"/>
    <rect x="807" y="252" width="72" height="72" rx="18" fill="#facc15"/>
    <rect x="907" y="166" width="72" height="72" rx="18" fill="#a78bfa"/>
    <rect x="907" y="252" width="72" height="72" rx="18" fill="#34d399"/>
    <text x="843" y="214" font-family="ui-monospace, SFMono-Regular, Menlo, Monaco, Consolas, monospace" font-size="44" font-weight="800" text-anchor="middle" fill="#0f172a">G</text>
    <text x="843" y="300" font-family="ui-monospace, SFMono-Regular, Menlo, Monaco, Consolas, monospace" font-size="44" font-weight="800" text-anchor="middle" fill="#0f172a">M</text>
    <text x="943" y="214" font-family="ui-monospace, SFMono-Regular, Menlo, Monaco, Consolas, monospace" font-size="44" font-weight="800" text-anchor="middle" fill="#0f172a">P</text>
    <text x="943" y="300" font-family="ui-monospace, SFMono-Regular, Menlo, Monaco, Consolas, monospace" font-size="44" font-weight="800" text-anchor="middle" fill="#0f172a">!</text>
    <text x="899" y="362" font-family="ui-monospace, SFMono-Regular, Menlo, Monaco, Consolas, monospace" font-size="27" font-weight="800" text-anchor="middle" fill="#f8fafc">scheduler</text>
  </g>

  <g filter="url(#shadow)">
    <rect x="512" y="194" width="166" height="150" rx="30" fill="#ffffff"/>
    <rect x="542" y="230" width="106" height="66" rx="18" fill="#fde68a"/>
    <circle cx="570" cy="262" r="7" fill="#0f172a"/>
    <circle cx="620" cy="262" r="7" fill="#0f172a"/>
    <path d="M574 282c12 14 30 14 42 0" fill="none" stroke="#0f172a" stroke-width="7" stroke-linecap="round"/>
    <text x="595" y="383" font-family="ui-monospace, SFMono-Regular, Menlo, Monaco, Consolas, monospace" font-size="32" font-weight="800" text-anchor="middle" fill="#0f172a">CPU</text>
  </g>

  <g filter="url(#shadow)">
    <path d="M248 156c-70 0-122 52-122 122v112h244V278c0-70-52-122-122-122z" fill="#60a5fa"/>
    <ellipse cx="248" cy="188" rx="82" ry="62" fill="#93c5fd"/>
    <circle cx="214" cy="188" r="12" fill="#0f172a"/>
    <circle cx="282" cy="188" r="12" fill="#0f172a"/>
    <path d="M220 224c18 18 38 18 56 0" fill="none" stroke="#0f172a" stroke-width="8" stroke-linecap="round"/>
    <path d="M168 140c20-34 58-44 82-14" fill="none" stroke="#60a5fa" stroke-width="24" stroke-linecap="round"/>
    <path d="M326 142c-20-34-58-44-82-14" fill="none" stroke="#60a5fa" stroke-width="24" stroke-linecap="round"/>
    <rect x="146" y="274" width="204" height="112" rx="24" fill="#1d4ed8"/>
    <text x="248" y="344" font-family="ui-monospace, SFMono-Regular, Menlo, Monaco, Consolas, monospace" font-size="38" font-weight="900" text-anchor="middle" fill="#ffffff">GO!</text>
    <path d="M360 302c64 10 105 40 122 94" fill="none" stroke="#0f172a" stroke-width="9" stroke-linecap="round"/>
    <polygon points="491,421 460,389 506,379" fill="#0f172a"/>
  </g>

  <g>
    <g transform="translate(155 450)">
      <circle cx="0" cy="0" r="27" fill="#22d3ee"/>
      <text x="0" y="10" font-family="ui-monospace, SFMono-Regular, Menlo, Monaco, Consolas, monospace" font-size="28" font-weight="900" text-anchor="middle" fill="#0f172a">G</text>
    </g>
    <g transform="translate(235 450)">
      <circle cx="0" cy="0" r="27" fill="#86efac"/>
      <text x="0" y="10" font-family="ui-monospace, SFMono-Regular, Menlo, Monaco, Consolas, monospace" font-size="28" font-weight="900" text-anchor="middle" fill="#0f172a">G</text>
    </g>
    <g transform="translate(315 450)">
      <circle cx="0" cy="0" r="27" fill="#fda4af"/>
      <text x="0" y="10" font-family="ui-monospace, SFMono-Regular, Menlo, Monaco, Consolas, monospace" font-size="28" font-weight="900" text-anchor="middle" fill="#0f172a">G</text>
    </g>
    <g transform="translate(395 450)">
      <circle cx="0" cy="0" r="27" fill="#c4b5fd"/>
      <text x="0" y="10" font-family="ui-monospace, SFMono-Regular, Menlo, Monaco, Consolas, monospace" font-size="28" font-weight="900" text-anchor="middle" fill="#0f172a">G</text>
    </g>
    <g transform="translate(475 450)">
      <circle cx="0" cy="0" r="27" fill="#fde68a"/>
      <text x="0" y="10" font-family="ui-monospace, SFMono-Regular, Menlo, Monaco, Consolas, monospace" font-size="28" font-weight="900" text-anchor="middle" fill="#0f172a">G</text>
    </g>
  </g>

  <g filter="url(#shadow)">
    <rect x="836" y="430" width="236" height="92" rx="24" fill="#ffffff"/>
    <text x="954" y="470" font-family="ui-monospace, SFMono-Regular, Menlo, Monaco, Consolas, monospace" font-size="28" font-weight="900" text-anchor="middle" fill="#0f172a">one P</text>
    <text x="954" y="504" font-family="ui-monospace, SFMono-Regular, Menlo, Monaco, Consolas, monospace" font-size="24" font-weight="800" text-anchor="middle" fill="#64748b">many Gs</text>
  </g>
</svg>
