<?xml version="1.0" standalone="no"?>
<!DOCTYPE svg PUBLIC "-//W3C//DTD SVG 20010904//EN"
 "http://www.w3.org/TR/2001/REC-SVG-20010904/DTD/svg10.dtd">
<svg version="1.0" xmlns="http://www.w3.org/2000/svg"
 width="180.000000pt" height="180.000000pt" viewBox="0 0 180.000000 180.000000"
 preserveAspectRatio="xMidYMid meet">

<g transform="translate(0.000000,180.000000) scale(0.100000,-0.100000)"
fill="#000000" stroke="none">
<path d="M891 1465 c-102 -19 -209 -59 -280 -105 -33 -21 -62 -36 -65 -33 -12
12 -56 -8 -56 -26 0 -10 -3 -21 -7 -25 -5 -4 -9 -20 -9 -34 -1 -15 -14 -56
-30 -92 -25 -56 -29 -79 -30 -166 -1 -56 -4 -106 -8 -112 -3 -6 -2 -13 3 -16
5 -4 11 2 14 11 3 15 6 13 17 -9 10 -20 10 -34 1 -59 -24 -70 -7 -143 39 -166
17 -9 25 -21 25 -39 0 -26 6 -31 57 -38 10 -1 47 -36 83 -77 70 -79 85 -91 85
-63 0 9 -30 47 -67 83 -38 37 -78 88 -91 113 -19 39 -28 47 -55 50 -47 4 -64
45 -49 116 19 90 47 104 105 52 48 -42 57 -39 57 20 0 43 3 52 23 60 17 7 18
9 5 9 -12 1 -18 9 -18 24 0 31 27 128 39 140 8 8 180 57 199 57 1 0 -2 -9 -7
-19 -18 -34 7 -42 80 -26 36 7 82 20 103 29 21 9 70 18 110 20 40 3 83 9 97
14 19 8 30 6 47 -9 19 -15 24 -32 29 -88 5 -61 4 -71 -12 -77 -9 -4 -29 0 -44
8 -14 9 -41 19 -58 23 -26 5 -33 3 -33 -9 0 -9 11 -18 25 -22 25 -6 25 -7 8
-35 -11 -19 -26 -29 -43 -30 -17 -1 -19 -3 -7 -6 12 -3 17 -15 18 -46 l0 -42
15 47 c17 57 53 88 99 86 l34 -1 6 -71 c4 -39 5 -93 3 -121 -3 -48 -4 -50 -35
-53 -40 -4 -69 11 -91 46 -11 18 -28 28 -47 30 l-30 4 23 -25 c31 -33 26 -61
-12 -65 -16 -2 -33 1 -39 7 -14 14 -37 14 -37 0 0 -5 16 -17 35 -24 43 -19 82
-6 91 30 l6 25 33 -20 c18 -11 49 -20 70 -20 l38 0 -6 -69 c-9 -109 -64 -197
-152 -244 -44 -23 -162 -30 -243 -13 -36 7 -42 6 -36 -7 11 -29 68 -47 151
-47 98 0 162 28 227 101 53 59 75 118 83 219 5 56 11 81 28 101 27 33 42 71
50 132 3 26 10 45 16 42 5 -4 17 -1 26 4 16 9 14 10 -9 11 -15 0 -38 11 -52
25 -14 14 -34 25 -44 25 -11 0 -23 7 -26 16 -9 24 -7 54 4 54 24 0 31 52 14
105 -12 40 -13 58 -5 73 16 30 14 79 -4 86 -8 3 -15 15 -15 26 0 11 -4 20 -10
20 -5 0 -10 7 -10 15 0 8 -12 17 -27 21 -59 12 -140 36 -191 55 -72 26 -144
31 -231 14z m535 -530 c12 -19 15 -36 9 -72 -12 -85 -55 -150 -55 -85 0 16 -3
63 -6 105 -7 74 -6 77 14 77 12 0 29 -11 38 -25z"/>
<path d="M895 984 c-27 -13 -57 -24 -66 -24 -8 0 -25 -11 -38 -24 -15 -16 -29
-22 -46 -18 -15 2 -25 0 -25 -7 0 -6 12 -14 28 -17 26 -5 27 -9 29 -65 1 -37
9 -72 20 -92 38 -65 140 -87 204 -44 37 25 84 110 95 170 5 33 2 43 -21 67
-15 16 -39 30 -54 32 -21 2 -25 8 -23 26 3 18 -1 22 -25 21 -15 0 -50 -11 -78
-25z m165 -59 c28 -25 23 -73 -14 -150 -30 -60 -62 -85 -115 -91 -85 -9 -141
55 -141 162 0 95 14 103 166 100 66 -1 86 -5 104 -21z"/>
<path d="M927 903 c-9 -8 -9 -68 0 -76 13 -13 33 16 33 49 0 32 -16 45 -33 27z"/>
<path d="M1237 903 c-13 -13 -7 -61 8 -67 18 -7 38 35 29 59 -6 16 -26 20 -37
8z"/>
<path d="M502 763 c2 -21 8 -27 21 -25 10 2 25 -2 32 -8 14 -12 35 -6 35 10 0
10 -63 50 -79 50 -8 0 -11 -11 -9 -27z"/>
<path d="M1045 579 c-10 -15 23 -47 57 -54 36 -8 79 8 96 36 18 28 7 36 -18
14 -25 -23 -74 -24 -98 -2 -22 20 -28 21 -37 6z"/>
</g>
</svg>
